<svg height="256" width="256" xmlns="http://www.w3.org/2000/svg" xmlns:xlink="http://www.w3.org/1999/xlink"><linearGradient id="a" gradientUnits="userSpaceOnUse" x1="272.79681" x2="254.12024" y1="476.64795" y2="535.94427"><stop offset="0" stop-color="#d2f1cb"/><stop offset="1" stop-color="#cdf9c3" stop-opacity=".42268"/></linearGradient><linearGradient id="b" gradientUnits="userSpaceOnUse" x1="456.6662" x2="579.09351" y1="428.55344" y2="428.55344"><stop offset="0" stop-color="#4c43d3"/><stop offset=".5" stop-color="#88b9e3" stop-opacity=".980392"/><stop offset="1" stop-color="#5950d6"/></linearGradient><linearGradient id="c" gradientUnits="userSpaceOnUse" x1="-169.13718" x2="-170.40012" y1="264.14258" y2="135.07076"><stop offset="0" stop-color="#8de17a"/><stop offset="1" stop-color="#a3f590"/></linearGradient><g transform="matrix(1.2335356 0 0 1.2335356 -458.33247520064 -438.07921987923)"><path d="m553.12245 458.90789c0 49.29704-40.00919 89.30623-89.30623 89.30623s-89.30623-40.00919-89.30623-89.30623 40.00919-89.30623 89.30623-89.30623 89.30623 40.00919 89.30623 89.30623z" fill="#f2f2f2" fill-rule="evenodd"/><path d="m14.025391 135.29297c1.300361 2.35725 2.682527 4.6635 4.183593 6.88476 1.015741 1.50309 2.150971 2.9135 3.253907 4.34961 2.082347-1.57983 4.061936-3.12626 6.789062-4.91992 19.34658-12.72443 33.864446-5.09794 43.134766-6.99804 9.27033-1.90006 4.982225-14.29247 10.578125-23.75782 6.0758-10.27709-21.482118-17.51529-27.804688-9.41406-7.86826 10.08175-6.457945 17.11222-13.546875 19.57422-6.703839 2.32825-17.734987 8.77622-26.58789 14.28125z" fill="url(#c)" fill-rule="evenodd" stroke="#3e7e42" stroke-width="2.983" transform="translate(371.55999 366.65166)"/><path d="m467.36457 391.60385c2.24061.3336 3.79273 2.19772 2.65834 6.23403l-31.66055 110.35917c-1.13439 4.03632-2.8591 5.03252-5.09971 4.69891-2.2406-.3336-4.12352-1.86694-2.98913-5.90325l31.66056-110.35917c1.13439-4.03631 3.18989-5.36329 5.43049-5.02969z" fill="#e0773e" stroke="#000" stroke-width="2.722669"/><g fill-rule="evenodd"><g fill="#9af286" stroke="#3e7e42" stroke-linecap="round" stroke-width="2.983"><path d="m448.05225 488.20443c9.49254 1.22673 12.30691-9.45061 9.03192-14.51678-2.98426-4.61643-13.23681-9.63863-15.84524-3.274-1.95575 4.77208 3.21281 7.4826 7.52625 7.03783"/><path d="m444.43069 493.83066c-3.87281-2.0276-9.26866-1.59952-6.84526-8.26922 1.7913-4.93005 7.69086-1.14693 15.59606 4.26081 7.90521 5.40773-.29336 12.10016-9.89445 11.27085"/><path d="m419.57651 478.78648c3.24366-5.76566 4.19563-11.58586 7.71095-12.79303 3.39406-1.16551 11.51772-7.10401 14.43778-5.53476 2.92001 1.56926 5.25102 7.17499-4.13314 11.68676-4.47504 2.15154-4.66421 7.82618-8.30039 10.07632"/></g><path d="m387.21038 504.61846c.84389 1.41032 1.64052 2.85237 2.55859 4.21093.13543.2004.2966.38085.4336.58008 13.42745-7.94977 25.03042-15.03063 30.97656-19.49023 1.74401-1.308 7.4497-14.15603 9.32813-18.57227.93921-2.20811 8.88525-6.48 8.44336-7.60351-.4419-1.1235-5.01375.81234-9.7129 3.92578-4.85546 3.217-7.96628 18.54999-14.07031 21.16601-5.05164 2.16499-18.80558 9.7378-27.95703 15.78321z" fill="url(#a)" opacity=".85"/><path d="m453.19526 478.54252c-2.9743.11016-4.62669-.33048-5.17749 1.54223s1.43207 5.3978 2.64382 5.72828c1.21176.33048 4.84701-2.09302 5.06733-3.74541s-.77112-2.86414-2.53366-3.5251z" fill="#86d973"/><path d="m451.76319 491.54131c-2.20319-1.32191-6.60956-1.8727-7.27052-.99143-.66095.88128 2.86414 1.43207 2.09303 3.19462s-2.31334 1.54223-2.86414 2.31334c-.5508.77112-1.54223 2.09303-.44064 2.86415 1.10159.77111 8.9229-.66096 9.58386-1.76255.66095-1.1016 2.75398-3.74542-1.10159-5.61813z" fill="#86d973"/></g><path d="m553.12245 458.90789c0 49.29704-40.00919 89.30623-89.30623 89.30623s-89.30623-40.00919-89.30623-89.30623 40.00919-89.30623 89.30623-89.30623 89.30623 40.00919 89.30623 89.30623z" fill="none" stroke="#000" stroke-width="5.9"/><path d="m457.44994 445.29057c18.61497 5.73515 36.06143-6.40912 46.7732.34584 10.71176 6.75496 20.06188 16.41948 36.91404 14.87535 16.66794-1.52725 37.95634-9.5575 37.95634-9.5575s-20.92313-9.0258-29.94912-19.29193c-9.02601-10.26612-13.30975-20.88639-29.15219-26.55472-21.51435-7.69771-39.59357-2.84376-48.50761-7.89327-5.35944 18.01012-14.03466 48.07623-14.03466 48.07623z" fill="url(#b)"/><circle cx="464.67938" cy="459.11319" fill="none" r="76.199661"/><g fill="#fff" stroke-width=".501536" transform="matrix(.84879769 .40779654 -.34130357 1.0141611 .587796 1.175592)"><path d="m624.18219 163.27271c-.61759-.24229-1.40128-.53233-2.34816-.86617-.9505-.33512-1.66076-.59429-2.13902-.78445-.47626-.18938-1.04906-.45166-1.72204-.7868-.65345-.34285-1.27321-.73363-1.85853-1.17235-1.34883-.98411-1.67766-2.69295-.91896-5.13931.20758-.62482.59797-1.08671 1.16905-1.38517.57101-.29841 1.1751-.33993 1.80854-.1235.71345.25011 1.78679.74171 3.19447 1.47455 1.40395.71526 2.47292 1.22196 3.23366 1.52201.14048-1.60826.34564-3.34499.62142-5.20803.18361-1.24038 1.44014-1.61708 3.73181-1.10647.47583.0767.87609.29585 1.20137.65762.32525.36174.48933.77752.49444 1.2466-.0283 3.60278-.0342 5.99536-.066 7.87474-.0178 1.7425-.10111 3.77923-.23504 6.13446-.12208 2.32269-.32403 4.60263-.60281 6.83653-.0543.47324-.3682.89616-.94127 1.26824-.56584.3917-1.16806.62938-1.80986.71401-.70683.13405-1.32565.1187-1.85693-.0459-.513-.17207-.76983-.49539-.76677-.97085-.0219-1.52518-.0655-3.36099-.12011-5.63753-.061-2.25045-.077-3.80288-.0693-4.50224-.00001-.00001-.00002-.00002-.00002-.00003z"/><path d="m645.97692 153.25383c-.47689-1.64948-1.2415-2.92768-2.34523-3.84454-.96755-.66789-1.8573-.78635-2.6249-.35855-.26665.15138-.50767.34627-.72191.58461-.33699.50886-.595 1.15187-.77267 1.92891-.25721 1.20144-.21196 2.23602.12563 3.1061.34385-.14027.97715-.38744 1.89996-.74155 0 0 .053-.0216.053-.0216.9756-.20068 1.78011-.34568 2.41171-.43479.63841-.11084 1.29755-.18381 1.97445-.21865 0 .00001 0 .00002.00001.00004zm-5.73575 5.8752c.0817.25792.25763.81345.52782 1.66659.28873.84515.48988 1.48078.60323 1.90469.10718.40477.21183.96646.31552 1.68671.0973.70003.12764 1.38307.0919 2.04842-.0245.57098-.37645 1.01935-1.05603 1.34476-.66128.31786-1.14062.24637-1.43857-.21475-1.23532-1.84978-2.19224-3.63278-2.85558-5.36-.64388-1.73295-1.12536-3.7382-1.42663-6.01445-.0349-.30263-.12286-.92284-.26381-1.87745-.12113-.95813-.1944-1.61549-.22104-1.96167-.0267-.34698-.041-.89211-.0406-1.63097.0133-.76739.0835-1.3672.20931-1.79903.12576-.43177.33096-.92941.61687-1.49299.2796-.5835.6522-1.126 1.11768-1.62768.66601-.70845 1.38039-1.30982 2.14034-1.80325.38014-.14855.76957-.27705 1.16746-.38545 1.35212-.36655 2.7203-.44102 4.06923-.22051 1.35063.22079 2.49384.77143 3.42649 1.65456 1.25104 1.1761 2.24711 2.46863 3.01845 3.87847.78905 1.38592 1.35361 2.90454 1.72936 4.5592.37505 1.65155.64165 3.18554.81165 4.58838.16777 1.39381.30277 3.07038.43276 5.08199.033.57853-.22115 1.02478-.75515 1.33507-.51777.30699-1.10713.41045-1.78445.31198-.67218-.0784-1.18796-.35209-1.54334-.82056-1.02171-1.40072-1.85742-3.68767-2.35623-6.79065-.28915.0616-1.39146.2753-3.3017.6396-.22726.0434-.44317.0853-.64772.1259-1.47083.57931-2.33329.97031-2.58724 1.17307.00001.00001.00001.00001.00001.00002z"/><path d="m655.89368 162.45674c-.23821-1.40452-.64571-3.52243-1.2241-6.22898-.56562-2.74107-.99793-5.08579-1.2799-7.09697-.28019-1.99827-.44669-4.18412-.46381-6.5436-.0296-.84528.93805-1.3852 2.90787-1.6216.89767-.13259 1.80444-.27742 2.72123-.43458.93798-.18185 1.79682-.33806 2.57544-.46853.80154-.13484 1.62045-.14983 2.44675-.0441.82604.0854 1.55679.32163 2.18712.70937.14257.088.28027.17798.41314.26982 1.16887 1.37187 1.96365 2.7619 2.39399 4.17044.4757 1.53592.80772 3.51227.99937 5.93543.22478 2.9818-.37119 5.31112-1.74144 6.97193-.46139.56194-1.03071 1.01194-1.70734 1.34978-1.18605 1.20801-2.69931 2.17544-4.55933 2.89723-2.02411.77021-3.36328 1.17144-4.07105 1.2078-.93391.0267-1.47278-.33094-1.59795-1.07355 0 .00003.00001.00005.00001.00008zm8.58137-17.88309c-.52927-.56989-1.20752-.88578-2.02808-.94889-.79875-.0878-1.61625.084-2.43109.51338-.30001.16255-.52798.38288-.68375.66128-.15573.27831-.25635.53558-.30325.77177-.0253.23189-.043.55508-.0525.96954-.0447 2.39926.22534 5.38426.74124 9.07073.0879.60022.28448 1.00249.58517 1.20505.30125.20295.77554.22318 1.4271.0608.48441-.12611 1.08466-.35968 1.80979-.70188.74371-.34624 1.2306-.63598 1.45489-.86871.51355-.5296.8971-1.19065 1.1458-1.97914.14439-.38353.24298-.82778.29531-1.33249.15547-1.33279.0651-2.69197-.27904-4.07689-.0223-.0784-.0457-.15649-.0702-.23424-.39102-1.33093-.92675-2.3657-1.61132-3.11031z"/><path d="m676.87152 164.0545c-.45067.002-.8899-.0359-1.31814-.11211-.42884-.0557-.86573-.16497-1.31127-.3277-.42657-.13776-.78279-.36269-1.06915-.67459-.28679-.29138-.45568-.63845-.50596-1.04099-.4499-3.76921-.69635-7.19162-.71925-10.28466-.0225-3.11032.0856-6.31759.33444-9.61856.028-.3851.12672-.68359.29671-.89566.19057-.20782.48347-.33306.8788-.37573.41599-.0385.77978-.0465 1.09095-.0241.31165.002.76776.0538 1.36814.1558.62158.0857 1.04682.14154 1.27496.1675.45622.0518 1.16277.11339 2.11937.18435.95785.0504 1.65536.0993 2.09234.14681.45747.0517 1.049.15142 1.77417.2991.72522.1477 1.39513.35683 2.00884.62758.63436.27495 1.29539.62843 1.98161 1.06052.9084.58204 1.33384 1.46172 1.28228 2.64137-.031 1.18324-.49292 1.93338-1.37837 2.24859-.90644.31117-1.76572.40165-2.5826.27207-.81569-.15011-1.50306-.39821-2.06339-.74392-.55948-.36631-1.26691-.66965-2.12176-.91038-.85391-.26124-1.76731-.33782-2.736-.23032-.61895.0774-.97137.55079-1.05925 1.42044-.0676.87365.18944 1.48613.76786 1.83614.67918.3922 1.41095.69272 2.19674.90124.78586.20855 1.47284.334 2.06214.37624.60939.0465 1.2965.19245 2.05975.43789.76436.22486 1.47103.57277 2.1182 1.04414.72603.53008 1.01503 1.32142.87275 2.37593-.12214 1.05828-.56505 1.71372-1.32439 1.96519-.77973.24731-1.5965.29808-2.4537.1528-.83626-.16146-1.57964-.37552-2.23102-.64191-.63069-.28261-1.42777-.44552-2.38878-.48925-.54106-.0143-.86011.247-.95788.78393-.0779.54146-.0299 1.21329.14175 2.01671.19143.80762.36177 1.61107.51139 2.41031.16993.78297.18442 1.45953.0461 2.0287-.11807.55315-.47116.82532-1.05842.81659z"/><path d="m701.78812 153.70557c-.0963-1.71746-.53747-3.11374-1.28904-4.17431-.6919-.79757-1.40103-1.03028-2.15898-.70096-.73822.32763-1.41003 1.02251-2.02932 2.08194-.59991 1.05848-.89815 2.04938-.86965 2.97628.36385-.0266 1.03141-.0651 2.00195-.11529.99145-.0724 1.80033-.11078 2.42816-.11507.62764-.0251 1.2659-.009 1.91688.0474zm-7.28449 4.58116c-.0111.26883-.035.84787-.0716 1.73711-.0154.88866-.0422 1.5488-.0818 1.98527-.0386.41426-.13764.97887-.29948 1.68933-.1611.69062-.38836 1.3434-.68454 1.95897-.24767.53026-.79936.84072-1.65531.93239-.56194.0609-.96225-.0189-1.19871-.23907-.0983-.13733-.16358-.29827-.19584-.48278-.43457-2.29923-.63683-4.37246-.59323-6.22658.0634-1.84821.37628-3.832.95045-5.94866.0807-.27763.23233-.85933.45918-1.75528.2382-.85946.4117-1.45236.51717-1.77265.004-.0119.007-.0234.0103-.0345.10198-.33883.28177-.85095.53945-1.5517.27737-.72046.53866-1.26575.78722-1.63566.24865-.37006.58198-.77784.99717-1.22451.41601-.46707.88938-.86802 1.42013-1.20215 1.08036-.67003 2.1528-1.10509 3.2383-1.30355 1.10386-.20006 2.14777-.10537 3.15699.28602 1.00803.39095 1.837 1.09258 2.48942 2.10304.87608 1.34658 1.60002 2.7859 2.15019 4.31275.5684 1.5042.96671 3.12151 1.16979 4.84467.20337 1.72552.31737 3.30693.33256 4.75206.0137 1.41873-.0501 3.15821-.20688 5.19251-.0509.58904-.43952.99845-1.17143 1.22966-.70861.22963-1.47775.24309-2.29573.0411-.81762-.1813-1.37656-.53308-1.67948-1.05599-.86875-1.5796-1.13883-3.94444-.90503-7.14992-.31616.0214-1.49996.081-3.55686.17926-2.05425.0982-3.26156.21139-3.62241.33888z"/></g></g></svg>